<mxfile host="app.diagrams.net" agent="Mozilla/5.0 (Windows NT 10.0; Win64; x64) AppleWebKit/537.36 (KHTML, like Gecko) Chrome/134.0.0.0 Safari/537.36" version="26.2.3">
  <diagram name="第 1 页" id="wTaN3yKLWi4rCBMbLbat">
    <mxGraphModel dx="1428" dy="751" grid="1" gridSize="10" guides="1" tooltips="1" connect="1" arrows="1" fold="1" page="1" pageScale="1" pageWidth="827" pageHeight="1169" math="0" shadow="0">
      <root>
        <mxCell id="0" />
        <mxCell id="1" parent="0" />
        <mxCell id="C6ckC5XjFhUadCyAJ-YC-1" value="没有分区的磁盘" style="ellipse;whiteSpace=wrap;html=1;aspect=fixed;fillColor=#f8cecc;strokeColor=#b85450;" vertex="1" parent="1">
          <mxGeometry x="90" y="309.5" width="160" height="160" as="geometry" />
        </mxCell>
        <mxCell id="C6ckC5XjFhUadCyAJ-YC-6" value="" style="verticalLabelPosition=bottom;verticalAlign=top;html=1;shape=mxgraph.basic.pie;startAngle=0.2;endAngle=-0.2;fillColor=#fff2cc;strokeColor=#d6b656;direction=south;rotation=233;" vertex="1" parent="1">
          <mxGeometry x="360" y="310" width="160" height="160" as="geometry" />
        </mxCell>
        <mxCell id="C6ckC5XjFhUadCyAJ-YC-7" value="" style="verticalLabelPosition=bottom;verticalAlign=top;html=1;shape=mxgraph.basic.pie;startAngle=-0.2;endAngle=0.2;fillColor=#f8cecc;strokeColor=#b85450;rotation=323;" vertex="1" parent="1">
          <mxGeometry x="361.5" y="309.5" width="160" height="165" as="geometry" />
        </mxCell>
        <mxCell id="C6ckC5XjFhUadCyAJ-YC-8" value="" style="verticalLabelPosition=bottom;verticalAlign=top;html=1;shape=mxgraph.basic.pie;startAngle=-0.2;endAngle=0.19926975016057186;fillColor=#f8cecc;strokeColor=#b85450;rotation=320;" vertex="1" parent="1">
          <mxGeometry x="620" y="300" width="160" height="170" as="geometry" />
        </mxCell>
        <mxCell id="C6ckC5XjFhUadCyAJ-YC-10" value="" style="verticalLabelPosition=bottom;verticalAlign=top;html=1;shape=mxgraph.basic.pie;startAngle=-0.2;endAngle=0.2;fillColor=#dae8fc;strokeColor=#6c8ebf;rotation=31;" vertex="1" parent="1">
          <mxGeometry x="620" y="305" width="160" height="160" as="geometry" />
        </mxCell>
        <mxCell id="C6ckC5XjFhUadCyAJ-YC-11" value="" style="verticalLabelPosition=bottom;verticalAlign=top;html=1;shape=mxgraph.basic.pie;startAngle=-0.2;endAngle=0.2;fillColor=#dae8fc;strokeColor=#6c8ebf;rotation=102;" vertex="1" parent="1">
          <mxGeometry x="620" y="305" width="160" height="160" as="geometry" />
        </mxCell>
        <mxCell id="C6ckC5XjFhUadCyAJ-YC-13" value="" style="verticalLabelPosition=bottom;verticalAlign=top;html=1;shape=mxgraph.basic.pie;startAngle=0.2;endAngle=0.6;aspect=fixed;rotation=102;fillColor=#6a00ff;fontColor=#ffffff;strokeColor=#3700CC;" vertex="1" parent="1">
          <mxGeometry x="617.5" y="299" width="165" height="165" as="geometry" />
        </mxCell>
        <mxCell id="C6ckC5XjFhUadCyAJ-YC-14" value="主分区A" style="text;html=1;align=center;verticalAlign=middle;whiteSpace=wrap;rounded=0;" vertex="1" parent="1">
          <mxGeometry x="414" y="320" width="60" height="30" as="geometry" />
        </mxCell>
        <mxCell id="C6ckC5XjFhUadCyAJ-YC-15" value="拓展分区" style="text;html=1;align=center;verticalAlign=middle;whiteSpace=wrap;rounded=0;" vertex="1" parent="1">
          <mxGeometry x="420" y="410" width="60" height="30" as="geometry" />
        </mxCell>
        <mxCell id="C6ckC5XjFhUadCyAJ-YC-16" value="主分区A" style="text;html=1;align=center;verticalAlign=middle;whiteSpace=wrap;rounded=0;" vertex="1" parent="1">
          <mxGeometry x="666" y="311" width="60" height="30" as="geometry" />
        </mxCell>
        <mxCell id="C6ckC5XjFhUadCyAJ-YC-17" value="逻辑分区B" style="text;html=1;align=center;verticalAlign=middle;whiteSpace=wrap;rounded=0;" vertex="1" parent="1">
          <mxGeometry x="715" y="355" width="60" height="30" as="geometry" />
        </mxCell>
        <mxCell id="C6ckC5XjFhUadCyAJ-YC-18" value="逻辑分区C" style="text;html=1;align=center;verticalAlign=middle;whiteSpace=wrap;rounded=0;" vertex="1" parent="1">
          <mxGeometry x="708" y="404" width="60" height="30" as="geometry" />
        </mxCell>
        <mxCell id="C6ckC5XjFhUadCyAJ-YC-19" style="edgeStyle=orthogonalEdgeStyle;rounded=0;orthogonalLoop=1;jettySize=auto;html=1;entryX=0.111;entryY=0.207;entryDx=0;entryDy=0;entryPerimeter=0;" edge="1" parent="1" source="C6ckC5XjFhUadCyAJ-YC-1" target="C6ckC5XjFhUadCyAJ-YC-6">
          <mxGeometry relative="1" as="geometry" />
        </mxCell>
        <mxCell id="C6ckC5XjFhUadCyAJ-YC-20" style="edgeStyle=orthogonalEdgeStyle;rounded=0;orthogonalLoop=1;jettySize=auto;html=1;entryX=0.656;entryY=0.987;entryDx=0;entryDy=0;entryPerimeter=0;" edge="1" parent="1" target="C6ckC5XjFhUadCyAJ-YC-13">
          <mxGeometry relative="1" as="geometry">
            <mxPoint x="540" y="390" as="sourcePoint" />
          </mxGeometry>
        </mxCell>
      </root>
    </mxGraphModel>
  </diagram>
</mxfile>
